<svg width="1251" height="1244" viewBox="0 0 1251 1244" fill="none" xmlns="http://www.w3.org/2000/svg">
<path d="M187.5 581.5H309.5V500L269 381.5L230 255.5L269 130L391.5 41L628 15H839L939 130H1046L1101 255.5V429.5L939 581.5L1022 566L1139 621L1234 737L1205 831.5C1168.67 869 1097 945.7 1101 952.5C1105 959.3 1093.33 1038.67 1087 1077.5L961.5 1114.5L743.5 1048L706.5 1099.5C675.833 1090.17 613 1070.4 607 1066C601 1061.6 524.5 1064.17 487 1066L413 1099.5L365.5 1194L230 1227.5L167 1186C159.667 1144.17 145 1058 145 1048C145 1038 115.667 949.833 101 907L17 831.5L49.5 695L187.5 581.5Z" fill="#646F5B" stroke="white" stroke-width="30"/>
<path d="M526.484 883.434L415.928 854.245C415.05 854.013 414.439 853.219 414.439 852.311V823.65C414.439 823.421 414.399 823.195 414.323 822.979L376.793 717.531C376.736 717.37 376.7 717.203 376.685 717.033L361.435 540.297C349.457 464.529 325.5 310.117 325.5 298.617V197.118C325.5 196.521 325.767 195.975 326.228 195.595L376.707 153.969C406.653 132.706 467.622 96.4688 471.934 96.4688C475.202 96.4688 524.952 95.0924 565.013 92.731L581.383 90.2031C581.484 90.1875 581.586 90.1797 581.689 90.1797H598.604L630.616 78.6189C630.834 78.5402 631.064 78.5 631.296 78.5H822.657C823.516 78.5 824.279 79.0488 824.553 79.8632L863.623 196.195H909.29C909.39 196.195 909.489 196.203 909.588 196.218L974.875 206.056C974.972 206.071 975.068 206.093 975.162 206.121L1006.64 215.739C1007.1 215.882 1007.5 216.191 1007.76 216.607L1041.21 271.183C1041.4 271.498 1041.5 271.859 1041.5 272.228V361.09C1041.5 361.366 1041.44 361.638 1041.33 361.891L1007.51 439.336C1007.41 439.558 1007.28 439.761 1007.11 439.934L966.935 481L884.285 566.352L829.119 625.972C828.777 626.342 828.587 626.827 828.587 627.33V678.375C828.587 678.562 828.56 678.747 828.509 678.927L795.427 794.276C795.374 794.461 795.295 794.637 795.192 794.799L758.074 853.13C757.781 853.591 757.313 853.912 756.777 854.018L608.679 883.462C608.551 883.487 608.42 883.5 608.289 883.5H526.994C526.822 883.5 526.65 883.478 526.484 883.434Z" fill="#FFBDAC"/>
<path d="M863.623 196.195H909.29C909.39 196.195 909.489 196.203 909.588 196.218L974.875 206.056C974.972 206.071 975.068 206.093 975.162 206.121L1006.64 215.739C1007.1 215.882 1007.5 216.191 1007.76 216.607L1041.21 271.183C1041.4 271.498 1041.5 271.859 1041.5 272.228V361.09C1041.5 361.366 1041.44 361.638 1041.33 361.891L1007.51 439.336C1007.41 439.558 1007.28 439.761 1007.11 439.934L966.935 481L884.285 566.352L829.119 625.972C828.777 626.342 828.587 626.827 828.587 627.33V678.375C828.587 678.562 828.56 678.747 828.509 678.926L795.427 794.277C795.374 794.461 795.295 794.637 795.192 794.799L758.074 853.13C757.781 853.591 757.313 853.912 756.777 854.018L608.679 883.462C608.551 883.487 608.42 883.5 608.289 883.5H526.994C526.822 883.5 526.65 883.478 526.484 883.434L415.928 854.245C415.05 854.013 414.439 853.219 414.439 852.311V823.65C414.439 823.421 414.399 823.195 414.323 822.979L376.793 717.531C376.736 717.371 376.7 717.203 376.685 717.033L361.435 540.297C349.457 464.529 325.5 310.117 325.5 298.617C325.5 287.236 325.5 226.815 325.5 197.118C325.5 196.521 325.767 195.975 326.228 195.595L376.707 153.969C406.653 132.706 467.622 96.4688 471.934 96.4688C476.246 96.4688 561.472 94.0729 598.604 90.1797M863.623 196.195H825.764C824.797 196.195 823.97 196.879 823.798 197.831C821.326 211.487 816.908 236.56 816.908 239.32C816.908 242.142 826.713 264.23 831.89 275.525C832.08 275.939 832.402 276.267 832.809 276.471L884.285 302.211L914.994 315.86C915.924 316.274 916.395 317.319 916.089 318.29L904.363 355.423C903.675 357.604 900.456 357.108 900.456 354.821V336.097C900.456 334.586 898.844 333.621 897.512 334.334L747.733 414.516L897.431 325.571C898.765 324.778 898.728 322.835 897.364 322.094L830.264 285.641C829.026 284.969 827.499 285.753 827.325 287.151L824.27 311.59C824.165 312.431 823.542 313.114 822.715 313.296L734.258 332.758M863.623 196.195L828.125 91.4673C827.861 90.6902 827.15 90.1528 826.33 90.1118L741.271 85.8585C739.743 85.7821 738.694 87.3795 739.363 88.756C742.825 95.8729 747.733 106.565 747.733 109.047C747.733 112.641 774.684 142.289 773.786 145.883C773.069 148.751 767.522 201.351 764.82 227.466C764.808 227.586 764.786 227.699 764.752 227.814L734.258 332.758M863.623 196.195L824.553 79.8632C824.279 79.0488 823.516 78.5 822.657 78.5H631.295C631.064 78.5 630.834 78.5402 630.616 78.6189L598.604 90.1797M734.258 332.758L628.643 347.847C626.605 348.138 625.51 345.529 627.146 344.278L635.86 337.614C636.17 337.377 636.404 337.053 636.533 336.684L649.76 298.763C649.794 298.666 649.82 298.571 649.838 298.47C653.141 280.443 659.693 242.894 659.693 235.727C659.693 228.539 659.693 205.18 659.693 194.398L662.333 154.795C662.369 154.266 662.192 153.744 661.843 153.345L630.945 118.031L598.604 90.1797M734.258 332.758L527.633 357.914L482.127 361.483C481.921 361.5 481.722 361.486 481.521 361.438C466.127 357.788 433.788 347.962 425.219 337.25C414.439 323.773 403.658 320.18 403.658 316.586C403.658 313.711 410.845 285.44 414.439 271.664L418.069 260.773C418.84 258.457 422.298 259.28 421.945 261.695L414.57 312.096C414.486 312.665 414.653 313.244 415.026 313.682L434.384 336.408C434.83 336.932 435.514 337.19 436.195 337.091L526.106 323.996C527.006 323.865 527.704 323.143 527.805 322.24L538.34 228.297C538.388 227.871 538.302 227.449 538.086 227.078C523.043 201.279 495.884 159.844 489.902 145.883C481.842 127.075 441.651 109.161 459.188 109.047C459.29 109.047 459.408 109.039 459.509 109.023L581.383 90.2031C581.484 90.1875 581.586 90.1797 581.689 90.1797H598.604" stroke="black" stroke-width="6"/>
<path d="M255.554 1142.5L150.559 821.236L102.5 729.446L207.495 646.53L377.998 624.5L443.505 836.534L338.51 899.869L548.5 908.742L419.628 1048.57L255.554 967.794L347.387 1074.88L255.554 1142.5Z" fill="#828181"/>
<path d="M266.574 729.446L255.554 784.214H299.328M150.559 821.236L255.554 1142.5L347.387 1074.88L255.554 967.794L419.628 1048.57L548.5 908.742L338.51 899.869L443.505 836.534L377.998 624.5L207.495 646.53L102.5 729.446L150.559 821.236Z" stroke="black" stroke-width="30"/>
<path d="M536.792 1012.5L511.579 674.134L481.5 628.516L560.236 601.5L584.565 628.516V601.5L720.363 617.001L761.5 718.422L742.479 797.699L622.164 854.389L657.108 1012.5H536.792Z" fill="#FFD7D7"/>
<path d="M614.201 685.649L642.069 727.28L622.164 752.082M511.579 674.134L536.792 1012.5H657.108L622.164 854.389L742.479 797.699L761.5 718.422L720.363 617.001L584.565 601.5V628.516L560.236 601.5L481.5 628.516L511.579 674.134Z" stroke="black" stroke-width="30"/>
<path d="M933.226 1052.47L742.868 989.172L705.041 936.68L760.5 881.383L832.8 898.023L857.5 936.68L919.258 898.023L832.8 833.406L800.828 750.201C807.526 728.315 822.79 681.307 830.266 668.357C837.742 655.408 930.166 638.192 977.5 643L1099.05 734.397L1138.24 810.51L1079.51 881.383L1012.7 842.813L1015.91 775.541L933.226 711.5L895.268 775.011L900.809 823.877L966.208 861.635L1021.13 982.49L933.226 1052.47Z" fill="#EE5858" stroke="black" stroke-width="30"/>
</svg>
