<svg width="276" height="282" viewBox="0 0 276 282" fill="none" xmlns="http://www.w3.org/2000/svg">
<path d="M228.878 231.382L186.708 268.799C186.635 268.864 186.566 268.934 186.503 269.009L181.212 275.316C180.502 276.162 179.24 276.272 178.394 275.562L156.877 257.507C156.749 257.399 156.607 257.308 156.456 257.236L132.638 245.825C132.481 245.75 132.316 245.695 132.145 245.663L93.9248 238.442C93.588 238.378 93.2732 238.229 93.0106 238.009L69.2059 218.034C69.0797 217.928 68.9708 217.813 68.8743 217.679C56.2543 200.217 30.9891 165.424 29.7643 164.396C28.5726 163.396 15.2902 149.239 8.19758 141.643C7.78426 141.201 7.59435 140.595 7.68028 139.996L9.75637 125.512C9.80928 125.143 9.96434 124.796 10.204 124.511L21.5101 111.037C22.2022 110.212 23.423 110.083 24.2721 110.745L81.7146 155.539L58.6639 136.197L10.4764 91.4253C10.2325 91.1987 10.049 90.9147 9.94262 90.5992L6.05399 79.0674C5.88389 78.563 5.92191 78.0116 6.15963 77.5353L13.18 63.4687C13.372 63.0839 13.683 62.7713 14.0668 62.5772L21.3978 58.869C22.1121 58.5077 22.9729 58.607 23.5861 59.1216L99.2186 122.585L34.8549 61.5839L19.2234 48.4675C18.6741 48.0066 18.4136 47.287 18.5405 46.5813L21.6438 29.3339C21.7548 28.7176 22.148 28.1887 22.7063 27.905L37.1879 20.5476C37.9027 20.1845 38.7653 20.2833 39.3794 20.7986L124.614 92.3193L48.5163 24.6168C47.6214 23.8206 47.6223 22.4216 48.5182 21.6266L66.2426 5.89846C66.8961 5.31856 67.8504 5.22997 68.5995 5.67966L107.612 29.0999L136.745 49.6483C136.926 49.7755 137.084 49.9317 137.213 50.1105L168.386 93.208L176.312 103.291C176.411 103.416 176.525 103.53 176.651 103.629L186.199 111.108C186.872 111.636 187.135 112.533 186.854 113.34L182.451 125.989L178.207 137.289L187.067 120.571C187.146 120.422 187.206 120.264 187.245 120.1L188.528 114.741C188.671 114.144 188.532 113.515 188.151 113.034L180.488 103.362L168.571 89.8667L154.773 70.4212L145.855 57.6009C145.492 57.0792 145.398 56.4161 145.603 55.8144L154.166 30.6515C154.548 29.5287 155.818 28.9832 156.895 29.4789L174.294 37.4831C174.42 37.5407 174.539 37.6111 174.649 37.6932L236.144 83.2597C236.594 83.5938 236.884 84.1019 236.942 84.66L243.979 152.406C244.032 152.922 244.285 153.398 244.682 153.731L266.729 172.231C267.1 172.542 267.346 172.978 267.42 173.456L270.108 190.778C270.208 191.424 269.986 192.078 269.514 192.53L228.878 231.382Z" fill="#FFBDAC" stroke="black" stroke-width="10"/>
</svg>
