<svg width="253" height="297" viewBox="0 0 253 297" fill="none" xmlns="http://www.w3.org/2000/svg">
<path d="M77.6363 280.4L114.121 290.976C115.005 291.232 115.95 290.852 116.41 290.055L120.344 283.24C120.466 283.029 120.626 282.842 120.815 282.688L148.574 260.117C148.715 260.002 148.84 259.869 148.945 259.72L181.743 213.373C197.472 194.373 229.392 155.573 231.238 152.376L247.183 124.758C247.494 124.22 247.536 123.57 247.299 122.996L239.192 103.358C233.68 92.2956 221.326 71.7328 220.041 70.9909C219.067 70.4285 204.462 61.4864 192.903 53.9372L188.501 50.474C188.426 50.415 188.347 50.3615 188.265 50.3138L183.302 47.4486L175.755 38.8835C175.612 38.7207 175.443 38.5822 175.255 38.4737L119.196 6.10825C118.466 5.68658 117.549 5.76835 116.905 6.31267L87.3108 31.3201L73.6571 23.4371L52.5275 14.9008L42.0247 12.2645C41.5595 12.1477 41.0678 12.202 40.6393 12.4174L22.7252 21.4249C22.3765 21.6002 22.0867 21.8737 21.8916 22.2117L7.99458 46.282C7.84803 46.5358 7.75906 46.8188 7.73397 47.1108L5.43336 73.8939C5.41211 74.1413 5.43709 74.3903 5.50702 74.6285L10.816 92.7116L21.7486 130.657L28.4767 156.176C28.6112 156.686 28.5387 157.229 28.2748 157.686L20.4742 171.197C20.3746 171.37 20.3013 171.556 20.2568 171.75L11.6971 209.098C11.6523 209.293 11.6372 209.494 11.6522 209.694L13.295 231.537C13.335 232.068 13.5853 232.562 13.9904 232.908L52.901 266.147C52.994 266.227 53.0941 266.298 53.2 266.359L77.1931 280.211C77.3327 280.292 77.4815 280.355 77.6363 280.4Z" fill="#FFBDAC"/>
<path d="M87.3108 31.3201L73.6571 23.4371L52.5275 14.9008L42.0247 12.2645C41.5595 12.1477 41.0678 12.202 40.6393 12.4174L22.7252 21.4249C22.3765 21.6002 22.0867 21.8737 21.8915 22.2117L7.99458 46.282C7.84803 46.5358 7.75906 46.8188 7.73397 47.1108L5.43336 73.8939C5.41211 74.1412 5.43709 74.3903 5.50701 74.6285L10.816 92.7116L21.7486 130.657L28.4767 156.176C28.6112 156.686 28.5387 157.229 28.2748 157.686L20.4742 171.197C20.3746 171.37 20.3013 171.556 20.2568 171.75L11.6971 209.098C11.6523 209.293 11.6372 209.494 11.6522 209.694L13.295 231.537C13.335 232.068 13.5853 232.562 13.9904 232.908L52.901 266.147C52.994 266.227 53.0941 266.298 53.2 266.359L77.1931 280.211C77.3327 280.292 77.4815 280.355 77.6363 280.4L114.121 290.976C115.005 291.232 115.95 290.852 116.41 290.055L120.344 283.24C120.466 283.029 120.626 282.842 120.815 282.688L148.574 260.117C148.715 260.002 148.84 259.869 148.945 259.72L181.743 213.373C197.472 194.373 229.392 155.573 231.238 152.376C233.021 149.287 242.31 133.198 247.183 124.758C247.494 124.22 247.536 123.57 247.299 122.996L239.192 103.358C233.68 92.2956 221.326 71.7328 220.041 70.9909C218.756 70.2489 193.743 54.9196 183.302 47.4486M87.3108 31.3201L97.6634 37.2972C98.4922 37.7757 98.8667 38.7725 98.5537 39.6769C97.0518 44.015 94.7197 50.6377 94.3113 51.3451C93.8757 52.0995 87.8741 56.2491 84.4314 58.5655C84.0535 58.8198 83.6011 58.935 83.1473 58.8954L64.1393 57.2341L54.0495 55.9091C53.0056 55.772 52.0341 56.4677 51.8278 57.5002L50.5347 63.9734C50.2104 65.5965 52.4079 66.4246 53.2355 64.9911V64.9911C53.7789 64.0499 55.1228 64.0092 55.7222 64.9159L86.8094 111.946L57.8028 63.6786C56.9764 62.3034 58.0242 60.5638 59.6262 60.6514L81.0772 61.8235C82.4521 61.8986 83.3416 63.3082 82.8176 64.5816L80.8869 69.2733C80.5631 70.06 80.7724 70.9653 81.4086 71.5301L103.946 91.538M87.3108 31.3201L114.013 8.89101C114.631 8.37188 115.501 8.27512 116.218 8.64568L139.395 20.6235C140.774 21.3365 140.854 23.2878 139.563 24.1508C137.821 25.3154 136.117 26.542 135.833 27.0348C135.256 28.0338 122.466 31.6381 122.157 32.7916C121.912 33.7076 115.192 49.1272 111.789 56.8915C111.738 57.0085 111.699 57.1262 111.671 57.2508L103.946 91.538M87.3108 31.3201L116.905 6.31266C117.549 5.76835 118.466 5.68658 119.196 6.10825L175.255 38.4737C175.443 38.5822 175.612 38.7207 175.755 38.8835L183.302 47.4486M103.946 91.538L130.329 111.849C131.561 112.797 133.24 111.464 132.596 110.049V110.049C132.472 109.779 132.433 109.478 132.482 109.185L134.564 96.7393C134.582 96.6315 134.607 96.529 134.643 96.4256C136.566 90.8072 140.596 79.3754 141.739 77.3955C142.892 75.3976 146.641 68.9044 148.372 65.9076L153.674 54.9926C153.918 54.4909 154.36 54.1138 154.894 53.9523L169.194 49.626L183.302 47.4486M103.946 91.538L161.484 134.081L174.321 142.8C174.48 142.908 174.651 142.992 174.835 143.049C180.082 144.691 191.095 147.445 195.321 145.958C200.696 144.067 204.486 144.923 205.062 143.924C205.524 143.125 207.919 134.03 209.059 129.582V129.582C209.285 128.344 207.524 127.848 207.071 129.023L202.772 140.174C202.554 140.74 202.089 141.177 201.511 141.36L193.375 143.941C192.749 144.139 192.066 144.018 191.547 143.616L168.186 125.537C167.466 124.98 167.213 124.007 167.571 123.17L178.902 96.662C179.081 96.243 179.395 95.8989 179.798 95.6862C188.473 91.1069 202.799 84.4394 206.757 81.6351C212.147 77.8148 226.868 79.7083 221.904 76.7296C221.822 76.6805 221.733 76.6215 221.658 76.5625L188.501 50.474C188.426 50.415 188.347 50.3615 188.265 50.3138L183.302 47.4486" stroke="black" stroke-width="10"/>
</svg>
