<svg width="379" height="281" viewBox="0 0 379 281" fill="none" xmlns="http://www.w3.org/2000/svg">
<path d="M37.7575 191.993H11.165C10.1332 191.993 9.27077 192.778 9.17385 193.805L5.05632 237.444C5.01958 237.834 5.09783 238.225 5.28138 238.571L24.6083 274.939C24.9555 275.592 25.6347 276 26.3744 276H67.1665C67.308 276 67.449 275.985 67.5874 275.955L268.578 232.688C269.286 232.535 269.856 232.012 270.069 231.32L283.98 186.064C284.417 184.643 283.205 183.259 281.739 183.504L255.138 187.948L283.81 179.864C284.503 179.668 285.037 179.116 285.209 178.416L295.284 137.453C295.65 135.965 294.276 134.635 292.801 135.05L255.138 145.634L372.684 102.865C373.474 102.577 374 101.826 374 100.985V71.9365C374 70.6449 372.794 69.692 371.537 69.9907L247.432 99.4958C245.22 100.022 243.985 97.036 245.922 95.8459L341.702 37.0103C342.294 36.6465 342.655 36.0012 342.655 35.3062V18.9738C342.655 18.3979 342.407 17.85 341.974 17.4703L328.766 5.88406C328.157 5.34921 327.284 5.23553 326.558 5.59627L162.204 87.2158C161.529 87.551 160.727 87.4771 160.109 87.0451C155.147 83.5745 144.84 77.806 136.276 77.806C127.294 77.806 114.416 84.1512 108.723 87.5357C108.47 87.6856 108.26 87.8889 108.098 88.1329L39.4214 191.103C39.0504 191.659 38.426 191.993 37.7575 191.993Z" fill="#FFBDAC" stroke="black" stroke-width="10"/>
</svg>
