<svg width="1440" height="1024" viewBox="0 0 1440 1024" fill="none" xmlns="http://www.w3.org/2000/svg">
<path d="M959.292 651.575H936.553C935.533 651.575 934.676 652.343 934.565 653.357L931.075 685.263C931.026 685.706 931.127 686.151 931.36 686.53L947.871 713.328C948.235 713.919 948.88 714.279 949.574 714.279H984.798C984.92 714.279 985.043 714.267 985.163 714.245L1158.96 681.976C1159.66 681.846 1160.23 681.352 1160.47 680.681L1172.13 647.964C1172.64 646.545 1171.46 645.098 1169.96 645.313L1147.46 648.556L1172.12 642.56C1172.82 642.39 1173.37 641.857 1173.57 641.165L1181.97 611.679C1182.39 610.205 1181.07 608.826 1179.58 609.187L1147.46 616.971L1248.92 585.13C1249.76 584.868 1250.33 584.096 1250.33 583.222V562.525C1250.33 561.259 1249.16 560.311 1247.92 560.566L1143.93 581.89C1141.67 582.354 1140.55 579.245 1142.6 578.163L1222.14 536.02C1222.79 535.673 1223.2 534.993 1223.2 534.252V522.749C1223.2 522.122 1222.91 521.532 1222.41 521.154L1211.24 512.701C1210.66 512.268 1209.9 512.175 1209.24 512.457L1067.07 573.357C1066.45 573.618 1065.76 573.559 1065.19 573.216C1060.88 570.623 1051.99 566.344 1044.6 566.344C1036.86 566.344 1025.78 571.042 1020.82 573.575C1020.56 573.707 1020.34 573.893 1020.16 574.122L960.874 650.798C960.496 651.288 959.911 651.575 959.292 651.575Z" fill="#FFBDAC" fill-opacity="0.4" stroke="black"/>
<path d="M781.792 74.5746H758.957C757.937 74.5746 757.08 75.3423 756.969 76.3564L753.466 108.261C753.417 108.705 753.518 109.152 753.753 109.531L770.325 136.331C770.69 136.92 771.333 137.279 772.026 137.279H807.387C807.509 137.279 807.631 137.268 807.751 137.245L982.186 104.975C982.886 104.845 983.465 104.353 983.705 103.682L995.407 70.9648C995.915 69.5463 994.731 68.0974 993.24 68.3115L970.648 71.5555L995.394 65.5593C996.093 65.3898 996.648 64.8577 996.846 64.1658L1005.28 34.6787C1005.71 33.2053 1004.38 31.8245 1002.89 32.1843L970.648 39.9713L1072.48 8.12901C1073.32 7.86799 1073.89 7.0948 1073.89 6.22015V-14.4769C1073.89 -15.7424 1072.73 -16.6898 1071.49 -16.4365L967.095 4.89169C964.829 5.35457 963.716 2.24299 965.761 1.16349L1045.6 -40.9811C1046.25 -41.3274 1046.66 -42.0081 1046.66 -42.7498V-54.2491C1046.66 -54.8769 1046.37 -55.4682 1045.87 -55.8462L1034.65 -64.3032C1034.08 -64.7342 1033.32 -64.8267 1032.66 -64.5456L889.948 -3.64035C889.339 -3.38044 888.645 -3.43986 888.077 -3.78046C883.755 -6.37307 874.829 -10.6565 867.411 -10.6565C859.64 -10.6565 848.513 -5.9576 843.538 -3.424C843.281 -3.29305 843.059 -3.10685 842.882 -2.87891L783.372 73.8008C782.993 74.289 782.41 74.5746 781.792 74.5746Z" fill="#FFBDAC" fill-opacity="0.4" stroke="black"/>
<path d="M-13.6015 430.272H-36.4329C-37.4534 430.272 -38.3102 431.04 -38.4211 432.054L-41.9256 464.133C-41.9738 464.575 -41.8736 465.02 -41.6408 465.398L-25.0649 492.337C-24.7009 492.929 -24.0561 493.289 -23.3616 493.289H11.9953C12.118 493.289 12.2403 493.278 12.3609 493.256L186.794 460.824C187.495 460.694 188.074 460.2 188.313 459.528L200.023 426.627C200.528 425.208 199.343 423.762 197.853 423.977L175.258 427.237L200.003 421.211C200.703 421.041 201.256 420.508 201.454 419.816L209.898 390.16C210.318 388.686 208.992 387.308 207.503 387.669L175.258 395.495L277.095 363.493C277.929 363.231 278.496 362.459 278.496 361.585V340.765C278.496 339.499 277.334 338.551 276.093 338.806L171.649 360.252C169.385 360.716 168.268 357.609 170.309 356.526L250.208 314.136C250.862 313.789 251.271 313.11 251.271 312.369V300.796C251.271 300.17 250.978 299.58 250.479 299.202L239.26 290.702C238.687 290.267 237.924 290.174 237.264 290.458L94.5615 351.664C93.9503 351.926 93.253 351.866 92.6834 351.523C88.3601 348.917 79.4368 344.614 72.0199 344.614C64.2496 344.614 53.1218 349.337 48.1472 351.883C47.8902 352.015 47.669 352.201 47.4924 352.43L-12.0185 429.494C-12.3972 429.984 -12.9818 430.272 -13.6015 430.272Z" fill="#FFBDAC" fill-opacity="0.4" stroke="black"/>
<path d="M488.421 871.271L443.558 863.621C443.447 863.602 443.334 863.593 443.222 863.593H437.032C435.928 863.593 435.032 862.697 435.032 861.593V835.66C435.032 835.513 435.016 835.367 434.984 835.224L429.69 811.471C429.656 811.318 429.605 811.171 429.536 811.03L414.202 779.547C414.069 779.275 414 778.975 414 778.672V749.8C414 749.656 414.014 749.518 414.045 749.378C418.284 729.996 426.673 691.271 426.673 689.787C426.673 688.344 428.53 670.472 429.545 660.897C429.605 660.329 429.905 659.815 430.369 659.482L440.173 652.467C440.512 652.224 440.919 652.094 441.337 652.094H454.934C456.015 652.094 456.9 652.952 456.934 654.032L459.03 721.43V693.509L461.707 632.534C461.72 632.238 461.799 631.948 461.937 631.686L466.986 622.144C467.243 621.657 467.69 621.298 468.221 621.151L480.138 617.861C480.61 617.73 481.114 617.778 481.554 617.995L487.306 620.831C487.989 621.168 488.421 621.863 488.421 622.625V714.217L492.736 632.084V613.151C492.736 612.479 493.073 611.851 493.634 611.481L505.532 603.63C506.124 603.24 506.878 603.192 507.515 603.504L519.12 609.198C519.805 609.535 520.239 610.231 520.239 610.994V714.217L522.608 619.968C522.639 618.75 523.742 617.842 524.943 618.047L543.062 621.135C543.922 621.281 544.588 621.969 544.707 622.833L550.439 664.425L552.845 697.409C552.859 697.6 552.845 697.793 552.804 697.981L542.35 745.861L540.23 757.521C540.205 757.658 540.195 757.797 540.199 757.937L540.527 769.175C540.551 769.99 540.077 770.738 539.33 771.065L529.407 775.41C528.587 775.743 528.987 776.976 529.846 776.764L535.187 775.447C535.288 775.423 535.385 775.384 535.475 775.332L539.385 773.083C539.897 772.788 540.253 772.282 540.356 771.7L542.35 760.519L544.507 743.999L549.361 722.593L552.639 708.666C552.782 708.059 553.2 707.553 553.77 707.298L573.042 698.683C574.187 698.171 575.515 698.827 575.804 700.047L579.789 716.833C579.816 716.95 579.834 717.07 579.84 717.19L583.564 788.117C583.591 788.623 583.424 789.121 583.098 789.509L544.976 834.881C544.673 835.242 544.507 835.697 544.507 836.168V862.919C544.507 863.356 544.364 863.781 544.1 864.129L534.959 876.168C534.527 876.737 533.824 877.032 533.115 876.942L488.421 871.271Z" fill="#FFBDAC" fill-opacity="0.4" stroke="black"/>
<path d="M245.305 1083.18L200.442 1075.53C200.331 1075.51 200.218 1075.51 200.106 1075.51H193.916C192.812 1075.51 191.916 1074.61 191.916 1073.51V1047.57C191.916 1047.43 191.9 1047.28 191.868 1047.14L186.574 1023.38C186.54 1023.23 186.489 1023.08 186.42 1022.94L171.086 991.46C170.953 991.187 170.884 990.887 170.884 990.584V961.712C170.884 961.568 170.898 961.431 170.929 961.29C175.168 941.909 183.557 903.183 183.557 901.699C183.557 900.256 185.414 882.384 186.429 872.81C186.489 872.242 186.789 871.727 187.253 871.395L197.057 864.38C197.396 864.137 197.803 864.006 198.22 864.006H211.818C212.899 864.006 213.784 864.864 213.817 865.944L215.914 933.342V905.422L218.591 844.446C218.604 844.15 218.683 843.86 218.821 843.598L223.87 834.056C224.127 833.569 224.574 833.21 225.105 833.064L237.021 829.773C237.494 829.643 237.998 829.691 238.438 829.907L244.19 832.743C244.873 833.08 245.305 833.776 245.305 834.537V926.13L249.62 843.996V825.063C249.62 824.391 249.957 823.764 250.518 823.394L262.416 815.543C263.008 815.152 263.762 815.104 264.399 815.416L276.004 821.111C276.689 821.447 277.123 822.143 277.123 822.906V926.13L279.492 831.88C279.523 830.662 280.626 829.754 281.827 829.959L299.946 833.047C300.806 833.194 301.472 833.881 301.591 834.746L307.323 876.338L309.729 909.321C309.743 909.513 309.729 909.705 309.688 909.893L299.234 957.773L297.114 969.433C297.089 969.57 297.079 969.71 297.083 969.849L297.411 981.087C297.435 981.902 296.961 982.65 296.214 982.978L286.291 987.322C285.471 987.655 285.871 988.888 286.73 988.677L292.071 987.36C292.172 987.335 292.269 987.296 292.359 987.244L296.269 984.995C296.781 984.7 297.137 984.194 297.24 983.613L299.234 972.431L301.391 955.912L306.245 934.506L309.523 920.578C309.666 919.971 310.084 919.465 310.654 919.211L329.926 910.595C331.071 910.084 332.398 910.739 332.688 911.959L336.673 928.745C336.7 928.863 336.718 928.982 336.724 929.102L340.448 1000.03C340.475 1000.54 340.308 1001.03 339.982 1001.42L301.86 1046.79C301.557 1047.15 301.391 1047.61 301.391 1048.08V1074.83C301.391 1075.27 301.248 1075.69 300.984 1076.04L291.843 1088.08C291.411 1088.65 290.708 1088.94 289.999 1088.85L245.305 1083.18Z" fill="#FFBDAC" fill-opacity="0.4" stroke="black"/>
<path d="M1291.01 370.151L1246.15 362.501C1246.04 362.482 1245.92 362.473 1245.81 362.473H1239.62C1238.52 362.473 1237.62 361.577 1237.62 360.473V334.539C1237.62 334.393 1237.6 334.247 1237.57 334.104L1232.28 310.351C1232.25 310.198 1232.19 310.05 1232.13 309.91L1216.79 278.427C1216.66 278.154 1216.59 277.855 1216.59 277.551V248.68C1216.59 248.536 1216.6 248.398 1216.63 248.258C1220.87 228.876 1229.26 190.15 1229.26 188.667C1229.26 187.224 1231.12 169.352 1232.13 159.777C1232.19 159.209 1232.49 158.694 1232.96 158.362L1242.76 151.347C1243.1 151.104 1243.51 150.974 1243.93 150.974H1257.52C1258.6 150.974 1259.49 151.832 1259.52 152.912L1261.62 220.31V192.389L1264.3 131.414C1264.31 131.118 1264.39 130.828 1264.53 130.566L1269.57 121.024C1269.83 120.537 1270.28 120.178 1270.81 120.031L1282.73 116.741C1283.2 116.61 1283.7 116.658 1284.14 116.875L1289.89 119.711C1290.58 120.048 1291.01 120.743 1291.01 121.505V213.097L1295.32 130.964V112.031C1295.32 111.359 1295.66 110.731 1296.22 110.361L1308.12 102.51C1308.71 102.12 1309.47 102.072 1310.1 102.384L1321.71 108.078C1322.39 108.414 1322.83 109.111 1322.83 109.874V213.097L1325.2 118.848C1325.23 117.63 1326.33 116.722 1327.53 116.926L1345.65 120.015C1346.51 120.161 1347.18 120.849 1347.3 121.713L1353.03 163.305L1355.43 196.288C1355.45 196.48 1355.43 196.673 1355.39 196.861L1344.94 244.741L1342.82 256.4C1342.79 256.538 1342.78 256.677 1342.79 256.816L1343.12 268.055C1343.14 268.87 1342.67 269.618 1341.92 269.945L1332 274.29C1331.18 274.623 1331.58 275.856 1332.44 275.644L1337.78 274.327C1337.88 274.303 1337.97 274.264 1338.06 274.212L1341.97 271.963C1342.49 271.668 1342.84 271.162 1342.95 270.58L1344.94 259.399L1347.1 242.879L1351.95 221.473L1355.23 207.546C1355.37 206.939 1355.79 206.433 1356.36 206.178L1375.63 197.563C1376.78 197.051 1378.1 197.707 1378.39 198.927L1382.38 215.713C1382.41 215.83 1382.42 215.95 1382.43 216.07L1386.15 286.997C1386.18 287.503 1386.01 288.001 1385.69 288.389L1347.56 333.761C1347.26 334.122 1347.1 334.577 1347.1 335.048V361.799C1347.1 362.236 1346.95 362.661 1346.69 363.009L1337.55 375.048C1337.12 375.617 1336.41 375.912 1335.7 375.822L1291.01 370.151Z" fill="#FFBDAC" fill-opacity="0.4" stroke="black"/>
<path d="M301.451 232.601L256.587 224.952C256.476 224.933 256.364 224.923 256.251 224.923H250.061C248.957 224.923 248.061 224.028 248.061 222.923V196.99C248.061 196.844 248.045 196.698 248.013 196.555L242.72 172.801C242.686 172.649 242.634 172.501 242.566 172.361L227.231 140.878C227.098 140.605 227.029 140.305 227.029 140.002V111.13C227.029 110.986 227.043 110.849 227.074 110.708C231.313 91.3266 239.702 52.6009 239.702 51.1171C239.702 49.6741 241.559 31.8021 242.574 22.2276C242.634 21.6597 242.934 21.1449 243.399 20.8126L253.202 13.7977C253.541 13.5548 253.948 13.4242 254.366 13.4242H267.964C269.044 13.4242 269.929 14.2822 269.963 15.362L272.06 82.7604V54.8398L274.736 -6.13591C274.749 -6.43201 274.828 -6.72152 274.966 -6.98349L280.015 -16.5257C280.272 -17.0125 280.719 -17.3716 281.25 -17.5182L293.167 -20.8086C293.639 -20.9392 294.144 -20.8914 294.583 -20.6746L300.335 -17.8386C301.018 -17.5018 301.451 -16.8063 301.451 -16.0448V75.5476L305.765 -6.58561V-25.5189C305.765 -26.191 306.102 -26.8181 306.663 -27.1883L318.562 -35.0394C319.153 -35.4298 319.908 -35.4778 320.544 -35.1655L332.149 -29.4712C332.834 -29.1351 333.268 -28.4386 333.268 -27.6757V75.5476L335.637 -18.7018C335.668 -19.92 336.771 -20.8279 337.973 -20.6231L356.091 -17.5348C356.951 -17.3882 357.617 -16.7008 357.736 -15.8363L363.468 25.7558L365.874 58.7389C365.888 58.9306 365.874 59.1232 365.833 59.311L355.379 107.191L353.26 118.851C353.235 118.988 353.224 119.128 353.228 119.267L353.556 130.505C353.58 131.32 353.106 132.068 352.359 132.396L342.436 136.74C341.616 137.073 342.016 138.306 342.876 138.095L348.216 136.778C348.317 136.753 348.414 136.714 348.504 136.662L352.414 134.413C352.926 134.118 353.282 133.612 353.386 133.031L355.379 121.849L357.536 105.33L362.39 83.9238L365.668 69.9964C365.811 69.3891 366.229 68.8834 366.799 68.6288L386.071 60.0134C387.216 59.5017 388.544 60.1574 388.833 61.3774L392.818 78.1635C392.846 78.2807 392.863 78.4002 392.869 78.5205L396.593 149.448C396.62 149.954 396.453 150.451 396.127 150.839L358.005 196.212C357.702 196.572 357.536 197.028 357.536 197.498V224.25C357.536 224.687 357.393 225.111 357.129 225.459L347.988 237.498C347.556 238.067 346.853 238.363 346.144 238.273L301.451 232.601Z" fill="#FFBDAC" fill-opacity="0.4" stroke="black"/>
<path d="M123.543 773.395L91.5631 766.126C90.6525 765.919 90.0064 765.109 90.0064 764.175V758.263C90.0064 758.001 89.9549 757.741 89.8547 757.499L78.777 730.699C78.7025 730.519 78.6548 730.329 78.6353 730.134L74.074 684.619C70.4734 665.009 63.2723 625.044 63.2723 622.068V596.587C63.2723 595.939 63.5861 595.337 64.1144 594.962L78.6647 584.631C87.6661 579.127 105.993 569.749 107.289 569.749C108.272 569.749 123.226 569.393 135.268 568.781L140.234 568.121H145.365L154.796 565.188C154.989 565.129 155.189 565.098 155.39 565.098H211.779C212.603 565.098 213.343 565.604 213.642 566.371L225.027 595.56H238.799L258.513 598.117L267.534 600.491C267.986 600.61 268.383 600.884 268.654 601.265L278.125 614.571C278.366 614.91 278.496 615.316 278.496 615.731V637.867C278.496 638.181 278.422 638.491 278.279 638.772L268.408 658.233C268.293 658.459 268.136 658.661 267.946 658.829L256.082 669.272L231.238 691.362L215.133 706.348C214.727 706.727 214.496 707.257 214.496 707.812V720.104C214.496 720.319 214.461 720.532 214.393 720.736L204.605 750.123C204.538 750.323 204.44 750.511 204.315 750.68L193.641 765.125C193.334 765.54 192.878 765.82 192.37 765.907L148.503 773.417C148.391 773.436 148.279 773.445 148.166 773.445H123.986C123.837 773.445 123.688 773.429 123.543 773.395Z" fill="#FFBDAC" fill-opacity="0.4"/>
<path d="M225.027 595.56H238.799L258.513 598.117L267.534 600.491C267.986 600.61 268.383 600.884 268.654 601.265L278.125 614.571C278.366 614.91 278.496 615.316 278.496 615.731V637.867C278.496 638.181 278.422 638.491 278.279 638.772L268.408 658.233C268.293 658.459 268.136 658.661 267.946 658.829L256.082 669.272L231.238 691.362L215.133 706.348C214.727 706.727 214.496 707.257 214.496 707.812V720.104C214.496 720.319 214.461 720.532 214.393 720.736L204.605 750.123C204.538 750.323 204.44 750.511 204.315 750.68L193.641 765.125C193.334 765.54 192.878 765.82 192.37 765.907L148.503 773.417C148.391 773.436 148.279 773.445 148.166 773.445H123.986C123.837 773.445 123.688 773.429 123.543 773.395L91.5631 766.126C90.6525 765.919 90.0064 765.109 90.0064 764.175V758.263C90.0064 758.001 89.9549 757.741 89.8547 757.499L78.777 730.699C78.7025 730.519 78.6548 730.329 78.6353 730.134L74.074 684.619C70.4734 665.009 63.2723 625.044 63.2723 622.068C63.2723 619.22 63.2723 604.506 63.2723 596.587C63.2723 595.939 63.5861 595.337 64.1144 594.962L78.6647 584.631C87.6661 579.127 105.993 569.749 107.289 569.749C108.585 569.749 134.203 569.129 145.365 568.121M225.027 595.56H214.767C213.822 595.56 213.006 596.22 212.813 597.145C212.056 600.779 210.985 606.079 210.985 606.721C210.985 607.415 213.648 612.613 215.248 615.637C215.46 616.038 215.803 616.353 216.22 616.532L231.238 622.998L239.118 626.014C240.139 626.405 240.657 627.543 240.281 628.57L238.543 633.308C238.058 634.63 236.099 634.282 236.099 632.874V632.874C236.099 631.954 235.146 631.344 234.311 631.729L190.192 652.064L232.461 630.44C233.943 629.682 233.905 627.553 232.398 626.848L216.665 619.489C215.45 618.92 214.031 619.686 213.839 621.013L213.35 624.376C213.228 625.221 212.582 625.895 211.744 626.054L186.141 630.904M225.027 595.56L214.702 569.331C214.412 568.595 213.717 568.099 212.927 568.065L190.872 567.116C189.293 567.048 188.256 568.756 188.984 570.159C189.646 571.436 190.192 572.613 190.192 573.004C190.192 573.934 198.293 581.608 198.023 582.538C197.809 583.275 196.166 596.687 195.347 603.497C195.33 603.634 195.301 603.764 195.257 603.894L186.141 630.904M225.027 595.56L213.642 566.371C213.343 565.604 212.603 565.098 211.779 565.098H155.39C155.189 565.098 154.989 565.129 154.796 565.188L145.365 568.121M186.141 630.904L157.201 634.464C155.942 634.619 155.336 632.97 156.395 632.272V632.272C156.598 632.138 156.756 631.946 156.847 631.721L160.691 622.231C160.735 622.122 160.769 622.014 160.793 621.9C161.794 617.186 163.728 607.629 163.728 605.791C163.728 603.931 163.728 597.885 163.728 595.095L164.466 585.558C164.512 584.97 164.295 584.392 163.875 583.978L155.087 575.329L145.365 568.121M186.141 630.904L124.032 637.415L110.528 638.327C110.35 638.339 110.175 638.328 110 638.292C105.308 637.32 95.7914 634.806 93.2469 632.067C90.0064 628.579 86.7659 627.649 86.7659 626.719C86.7659 625.975 88.9263 618.658 90.0064 615.092V615.092C90.4004 614.074 91.9258 614.495 91.743 615.571L90.1659 624.85C90.0658 625.439 90.2556 626.04 90.6757 626.465L95.5244 631.366C95.9613 631.808 96.5787 632.022 97.1951 631.944L122.497 628.771C123.401 628.658 124.114 627.948 124.231 627.045L127.174 604.448C127.237 603.965 127.122 603.475 126.847 603.072C122.27 596.372 114.446 586.066 112.69 582.538C110.26 577.655 98.1095 573.004 103.509 573.004L140.234 568.121H145.365" stroke="black"/>
<path d="M724.435 1023.21L692.637 1015.94C691.728 1015.73 691.083 1014.92 691.083 1013.99V1008.07C691.083 1007.81 691.032 1007.56 690.933 1007.31L679.914 980.512C679.84 980.333 679.793 980.143 679.774 979.95L675.237 934.433C671.656 914.823 664.494 874.859 664.494 871.882V846.398C664.494 845.752 664.806 845.151 665.332 844.776L679.803 834.445C688.755 828.942 706.983 819.563 708.272 819.563C709.249 819.563 724.122 819.207 736.099 818.596L741.038 817.935H746.141L755.518 815.003C755.711 814.943 755.912 814.912 756.115 814.912H812.184C813.009 814.912 813.75 815.419 814.048 816.189L825.37 845.374H839.067L858.673 847.932L867.64 850.304C868.094 850.424 868.49 850.699 868.761 851.082L878.18 864.387C878.419 864.725 878.548 865.129 878.548 865.543V887.683C878.548 887.996 878.474 888.305 878.333 888.584L868.515 908.047C868.401 908.273 868.244 908.476 868.055 908.644L856.256 919.086L831.547 941.176L815.529 956.163C815.125 956.541 814.896 957.07 814.896 957.623V969.92C814.896 970.134 814.861 970.346 814.794 970.549L805.058 999.938C804.992 1000.14 804.895 1000.32 804.771 1000.49L794.156 1014.94C793.85 1015.35 793.394 1015.63 792.884 1015.72L749.263 1023.23C749.151 1023.25 749.038 1023.26 748.924 1023.26H724.88C724.73 1023.26 724.581 1023.24 724.435 1023.21Z" fill="#FFBDAC" fill-opacity="0.4"/>
<path d="M825.37 845.374H839.067L858.673 847.932L867.64 850.304C868.094 850.424 868.49 850.699 868.761 851.082L878.18 864.387C878.419 864.725 878.548 865.129 878.548 865.543V887.683C878.548 887.996 878.474 888.305 878.333 888.584L868.515 908.047C868.401 908.273 868.244 908.476 868.055 908.644L856.256 919.086L831.547 941.176L815.529 956.163C815.125 956.541 814.896 957.07 814.896 957.623V969.92C814.896 970.134 814.861 970.346 814.794 970.549L805.058 999.938C804.992 1000.14 804.895 1000.32 804.771 1000.49L794.156 1014.94C793.85 1015.35 793.394 1015.63 792.884 1015.72L749.263 1023.23C749.151 1023.25 749.038 1023.26 748.924 1023.26H724.88C724.73 1023.26 724.581 1023.24 724.435 1023.21L692.637 1015.94C691.728 1015.73 691.083 1014.92 691.083 1013.99V1008.07C691.083 1007.81 691.032 1007.56 690.933 1007.31L679.914 980.512C679.84 980.333 679.793 980.143 679.774 979.95L675.237 934.433C671.656 914.823 664.494 874.859 664.494 871.882C664.494 869.034 664.494 854.316 664.494 846.398C664.494 845.752 664.806 845.151 665.332 844.776L679.803 834.445C688.755 828.942 706.983 819.563 708.272 819.563C709.561 819.563 735.04 818.943 746.141 817.935M825.37 845.374H815.176C814.23 845.374 813.414 846.035 813.222 846.962C812.469 850.595 811.404 855.894 811.404 856.535C811.404 857.229 814.052 862.426 815.643 865.45C815.854 865.852 816.197 866.167 816.613 866.348L831.547 872.812L839.382 875.827C840.4 876.219 840.916 877.354 840.543 878.379L838.816 883.113C838.335 884.432 836.382 884.087 836.382 882.683V882.683C836.382 881.767 835.431 881.159 834.599 881.545L790.724 901.879L832.768 880.252C834.244 879.493 834.206 877.37 832.704 876.664L817.072 869.311C815.856 868.74 814.433 869.506 814.241 870.836L813.757 874.191C813.635 875.036 812.99 875.71 812.151 875.87L786.695 880.718M825.37 845.374L815.102 819.148C814.813 818.411 814.117 817.913 813.326 817.879L791.411 816.93C789.834 816.862 788.797 818.566 789.52 819.969C790.18 821.248 790.724 822.427 790.724 822.818C790.724 823.749 798.781 831.422 798.513 832.352C798.3 833.089 796.665 846.503 795.851 853.312C795.835 853.448 795.805 853.578 795.762 853.707L786.695 880.718M825.37 845.374L814.048 816.189C813.75 815.419 813.009 814.912 812.183 814.912H756.115C755.912 814.912 755.711 814.943 755.518 815.003L746.141 817.935M786.695 880.718L757.919 884.278C756.662 884.433 756.053 882.786 757.11 882.087V882.087C757.312 881.953 757.469 881.76 757.56 881.535L761.384 872.044C761.428 871.937 761.461 871.828 761.485 871.715C762.481 867.001 764.404 857.443 764.404 855.605C764.404 853.745 764.404 847.699 764.404 844.909L765.138 835.369C765.183 834.783 764.969 834.207 764.551 833.793L755.809 825.144L746.141 817.935M786.695 880.718L724.923 887.229L711.496 888.141C711.317 888.153 711.141 888.142 710.965 888.106C706.298 887.134 696.836 884.619 694.306 881.881C691.083 878.393 687.86 877.463 687.86 876.533C687.86 875.789 690.009 868.472 691.083 864.906V864.906C691.473 863.893 692.992 864.309 692.811 865.38L691.24 874.673C691.141 875.257 691.329 875.853 691.745 876.275L696.566 881.176C697.004 881.62 697.623 881.835 698.242 881.757L723.389 878.587C724.292 878.473 725.005 877.763 725.122 876.859L728.05 854.259C728.112 853.778 727.998 853.29 727.725 852.889C723.172 846.189 715.39 835.88 713.643 832.352C711.226 827.469 699.142 822.818 704.512 822.818L741.038 817.935H746.141" stroke="black"/>
<path d="M617.941 373.297L586.143 366.029C585.234 365.821 584.589 365.012 584.589 364.079V358.163C584.589 357.902 584.538 357.643 584.439 357.402L573.42 330.6C573.346 330.42 573.299 330.231 573.28 330.038L568.743 284.521C565.162 264.91 558 224.946 558 221.97V196.486C558 195.84 558.312 195.239 558.838 194.863L573.309 184.533C582.261 179.029 600.488 169.651 601.778 169.651C602.755 169.651 617.628 169.294 629.604 168.683L634.544 168.023H639.647L649.024 165.091C649.217 165.031 649.418 165 649.621 165H705.689C706.515 165 707.255 165.507 707.554 166.277L718.876 195.461H732.573L752.179 198.019L761.146 200.392C761.6 200.511 761.996 200.787 762.267 201.169L771.686 214.475C771.925 214.813 772.054 215.216 772.054 215.63V237.771C772.054 238.084 771.98 238.393 771.839 238.672L762.021 258.135C761.906 258.361 761.75 258.563 761.561 258.731L749.762 269.174L725.053 291.264L709.035 306.251C708.631 306.629 708.402 307.158 708.402 307.711V320.008C708.402 320.221 708.367 320.434 708.3 320.636L698.564 350.026C698.498 350.225 698.401 350.413 698.277 350.582L687.662 365.024C687.355 365.441 686.899 365.723 686.39 365.81L642.769 373.318C642.657 373.337 642.544 373.347 642.43 373.347H618.386C618.236 373.347 618.087 373.33 617.941 373.297Z" fill="#FFBDAC" fill-opacity="0.4"/>
<path d="M718.876 195.461H732.573L752.179 198.019L761.146 200.392C761.6 200.511 761.996 200.787 762.267 201.169L771.686 214.475C771.925 214.813 772.054 215.216 772.054 215.63V237.771C772.054 238.084 771.98 238.393 771.839 238.672L762.021 258.135C761.906 258.361 761.75 258.563 761.561 258.731L749.762 269.174L725.053 291.264L709.035 306.251C708.631 306.629 708.402 307.158 708.402 307.711V320.008C708.402 320.221 708.367 320.434 708.3 320.636L698.564 350.026C698.498 350.225 698.401 350.413 698.277 350.582L687.662 365.024C687.355 365.441 686.899 365.723 686.39 365.81L642.769 373.318C642.657 373.337 642.544 373.347 642.43 373.347H618.386C618.236 373.347 618.087 373.33 617.941 373.297L586.143 366.029C585.234 365.821 584.589 365.012 584.589 364.079V358.163C584.589 357.902 584.538 357.643 584.439 357.402L573.42 330.6C573.346 330.42 573.299 330.231 573.28 330.038L568.743 284.521C565.162 264.91 558 224.946 558 221.97C558 219.122 558 204.404 558 196.486C558 195.84 558.312 195.239 558.838 194.863L573.309 184.533C582.261 179.029 600.488 169.651 601.778 169.651C603.067 169.651 628.546 169.031 639.647 168.023M718.876 195.461H708.682C707.736 195.461 706.92 196.123 706.728 197.049C705.975 200.683 704.91 205.981 704.91 206.623C704.91 207.317 707.557 212.514 709.149 215.538C709.36 215.939 709.703 216.255 710.119 216.435L725.053 222.9L732.888 225.915C733.906 226.307 734.422 227.442 734.048 228.467L732.322 233.201C731.841 234.52 729.888 234.175 729.888 232.771V232.771C729.888 231.854 728.937 231.247 728.105 231.632L684.23 251.966L726.274 230.34C727.75 229.58 727.712 227.458 726.21 226.751L710.578 219.399C709.362 218.827 707.939 219.593 707.747 220.923L707.263 224.278C707.141 225.123 706.496 225.798 705.657 225.957L680.201 230.806M718.876 195.461L708.608 169.236C708.319 168.498 707.623 168.001 706.832 167.967L684.917 167.018C683.34 166.95 682.303 168.654 683.026 170.057C683.686 171.335 684.23 172.515 684.23 172.906C684.23 173.836 692.287 181.51 692.019 182.44C691.806 183.177 690.171 196.59 689.357 203.4C689.34 203.536 689.311 203.665 689.267 203.795L680.201 230.806M718.876 195.461L707.554 166.277C707.255 165.507 706.515 165 705.689 165H649.621C649.418 165 649.217 165.031 649.024 165.091L639.647 168.023M680.201 230.806L651.425 234.365C650.168 234.521 649.559 232.874 650.616 232.175V232.175C650.818 232.041 650.975 231.848 651.066 231.623L654.89 222.132C654.933 222.024 654.967 221.916 654.991 221.802C655.987 217.089 657.91 207.531 657.91 205.693C657.91 203.833 657.91 197.787 657.91 194.996L658.644 185.456C658.689 184.87 658.475 184.294 658.057 183.881L649.315 175.231L639.647 168.023M680.201 230.806L618.429 237.317L605.002 238.229C604.823 238.241 604.646 238.23 604.471 238.193C599.803 237.221 590.342 234.707 587.812 231.969C584.589 228.481 581.366 227.551 581.366 226.621C581.366 225.876 583.515 218.559 584.589 214.994V214.994C584.979 213.981 586.498 214.397 586.317 215.468L584.746 224.76C584.647 225.344 584.835 225.94 585.25 226.363L590.072 231.263C590.509 231.708 591.129 231.923 591.748 231.845L616.895 228.674C617.798 228.56 618.511 227.85 618.628 226.947L621.555 204.347C621.618 203.865 621.503 203.378 621.231 202.976C616.678 196.276 608.896 185.968 607.149 182.44C604.732 177.557 592.648 172.906 598.018 172.906L634.544 168.023H639.647" stroke="black"/>
<path d="M1285.89 948.366L1254.09 941.098C1253.18 940.89 1252.54 940.081 1252.54 939.148V933.232C1252.54 932.971 1252.48 932.713 1252.38 932.471L1241.37 905.669C1241.29 905.489 1241.25 905.3 1241.23 905.107L1236.69 859.59C1233.11 839.98 1225.95 800.016 1225.95 797.039V771.555C1225.95 770.909 1226.26 770.308 1226.78 769.932L1241.26 759.602C1250.21 754.099 1268.43 744.72 1269.72 744.72C1270.7 744.72 1285.57 744.364 1297.55 743.752L1302.49 743.092H1307.59L1316.97 740.16C1317.16 740.1 1317.36 740.069 1317.57 740.069H1373.64C1374.46 740.069 1375.2 740.576 1375.5 741.346L1386.82 770.531H1400.52L1420.13 773.089L1429.09 775.461C1429.55 775.581 1429.94 775.856 1430.21 776.239L1439.63 789.544C1439.87 789.882 1440 790.286 1440 790.699V812.84C1440 813.153 1439.93 813.462 1439.79 813.741L1429.97 833.204C1429.85 833.43 1429.7 833.633 1429.51 833.801L1417.71 844.243L1393 866.333L1376.98 881.32C1376.58 881.698 1376.35 882.227 1376.35 882.78V895.077C1376.35 895.29 1376.31 895.503 1376.25 895.706L1366.51 925.095C1366.44 925.294 1366.35 925.482 1366.22 925.651L1355.61 940.093C1355.3 940.51 1354.85 940.792 1354.34 940.88L1310.72 948.387C1310.6 948.407 1310.49 948.416 1310.38 948.416H1286.33C1286.18 948.416 1286.03 948.399 1285.89 948.366Z" fill="#FFBDAC" fill-opacity="0.4"/>
<path d="M1386.82 770.531H1400.52L1420.13 773.089L1429.09 775.461C1429.55 775.581 1429.94 775.856 1430.21 776.239L1439.63 789.544C1439.87 789.882 1440 790.286 1440 790.699V812.84C1440 813.153 1439.93 813.462 1439.79 813.741L1429.97 833.204C1429.85 833.43 1429.7 833.633 1429.51 833.801L1417.71 844.243L1393 866.333L1376.98 881.32C1376.58 881.698 1376.35 882.227 1376.35 882.78V895.077C1376.35 895.29 1376.31 895.503 1376.25 895.706L1366.51 925.095C1366.44 925.294 1366.35 925.482 1366.22 925.651L1355.61 940.093C1355.3 940.51 1354.85 940.792 1354.34 940.88L1310.72 948.387C1310.6 948.407 1310.49 948.416 1310.38 948.416H1286.33C1286.18 948.416 1286.03 948.399 1285.89 948.366L1254.09 941.098C1253.18 940.89 1252.54 940.081 1252.54 939.148V933.232C1252.54 932.971 1252.48 932.713 1252.38 932.471L1241.37 905.669C1241.29 905.489 1241.25 905.3 1241.23 905.107L1236.69 859.59C1233.11 839.98 1225.95 800.016 1225.95 797.039C1225.95 794.191 1225.95 779.473 1225.95 771.555C1225.95 770.909 1226.26 770.308 1226.78 769.932L1241.26 759.602C1250.21 754.099 1268.43 744.72 1269.72 744.72C1271.01 744.72 1296.49 744.1 1307.59 743.092M1386.82 770.531H1376.63C1375.68 770.531 1374.87 771.192 1374.67 772.119C1373.92 775.752 1372.86 781.05 1372.86 781.692C1372.86 782.386 1375.5 787.583 1377.1 790.607C1377.31 791.009 1377.65 791.324 1378.07 791.504L1393 797.969L1400.83 800.984C1401.85 801.376 1402.37 802.511 1401.99 803.536L1400.27 808.27C1399.79 809.589 1397.83 809.244 1397.83 807.84V807.84C1397.83 806.923 1396.88 806.316 1396.05 806.702L1352.18 827.036L1394.22 805.409C1395.7 804.65 1395.66 802.527 1394.16 801.82L1378.52 794.468C1377.31 793.896 1375.89 794.662 1375.69 795.992L1375.21 799.348C1375.09 800.192 1374.44 800.867 1373.6 801.027L1348.15 805.875M1386.82 770.531L1376.55 744.305C1376.27 743.568 1375.57 743.07 1374.78 743.036L1352.86 742.087C1351.29 742.019 1350.25 743.723 1350.97 745.126C1351.63 746.404 1352.18 747.584 1352.18 747.975C1352.18 748.905 1360.23 756.579 1359.96 757.509C1359.75 758.246 1358.12 771.659 1357.3 778.469C1357.29 778.605 1357.26 778.735 1357.21 778.864L1348.15 805.875M1386.82 770.531L1375.5 741.346C1375.2 740.576 1374.46 740.069 1373.64 740.069H1317.57C1317.36 740.069 1317.16 740.1 1316.97 740.16L1307.59 743.092M1348.15 805.875L1319.37 809.434C1318.11 809.59 1317.51 807.943 1318.56 807.244V807.244C1318.76 807.11 1318.92 806.917 1319.01 806.692L1322.84 797.201C1322.88 797.093 1322.91 796.985 1322.94 796.871C1323.93 792.158 1325.86 782.6 1325.86 780.762C1325.86 778.902 1325.86 772.856 1325.86 770.066L1326.59 760.525C1326.64 759.94 1326.42 759.363 1326 758.95L1317.26 750.301L1307.59 743.092M1348.15 805.875L1286.38 812.386L1272.95 813.298C1272.77 813.31 1272.59 813.299 1272.42 813.262C1267.75 812.29 1258.29 809.776 1255.76 807.038C1252.54 803.55 1249.31 802.62 1249.31 801.69C1249.31 800.946 1251.46 793.629 1252.54 790.063V790.063C1252.93 789.05 1254.44 789.466 1254.26 790.537L1252.69 799.829C1252.59 800.414 1252.78 801.01 1253.2 801.432L1258.02 806.333C1258.46 806.777 1259.08 806.992 1259.69 806.914L1284.84 803.743C1285.74 803.63 1286.46 802.919 1286.57 802.016L1289.5 779.416C1289.56 778.935 1289.45 778.447 1289.18 778.046C1284.62 771.345 1276.84 761.037 1275.1 757.509C1272.68 752.626 1260.59 747.975 1265.96 747.975L1302.49 743.092H1307.59" stroke="black"/>
</svg>
