<svg width="722" height="811" viewBox="0 0 722 811" fill="none" xmlns="http://www.w3.org/2000/svg">
<path d="M203.984 807.934L93.428 778.745C92.5501 778.513 91.9385 777.719 91.9385 776.811V748.15C91.9385 747.921 91.8994 747.695 91.8227 747.479L54.2933 642.031C54.236 641.87 54.1996 641.703 54.1849 641.533L38.9348 464.797C26.9565 389.029 3 234.617 3 223.117V121.618C3 121.021 3.26685 120.475 3.72758 120.095L54.207 78.4688C84.1527 57.2057 145.122 20.9688 149.434 20.9688C152.702 20.9688 202.452 19.5924 242.513 17.231L258.883 14.7031C258.984 14.6875 259.086 14.6797 259.189 14.6797H276.104L308.116 3.11891C308.334 3.04023 308.564 3 308.796 3H500.157C501.016 3 501.779 3.54876 502.053 4.36325L541.123 120.695H586.79C586.89 120.695 586.989 120.703 587.088 120.718L652.375 130.556C652.472 130.571 652.568 130.593 652.662 130.621L684.137 140.239C684.604 140.382 685.003 140.691 685.258 141.107L718.705 195.683C718.898 195.998 719 196.359 719 196.728V285.59C719 285.866 718.943 286.138 718.833 286.391L685.009 363.836C684.912 364.058 684.775 364.261 684.606 364.434L644.435 405.5L561.785 490.852L506.619 550.472C506.277 550.842 506.087 551.327 506.087 551.83V602.875C506.087 603.062 506.06 603.247 506.009 603.427L472.927 718.776C472.874 718.961 472.795 719.137 472.692 719.299L435.574 777.63C435.281 778.091 434.813 778.412 434.277 778.518L286.179 807.962C286.051 807.987 285.92 808 285.789 808H204.494C204.322 808 204.15 807.978 203.984 807.934Z" fill="#FFBDAC"/>
<path d="M541.123 120.695H586.79C586.89 120.695 586.989 120.703 587.088 120.718L652.375 130.556C652.472 130.571 652.568 130.593 652.662 130.621L684.137 140.239C684.604 140.382 685.003 140.691 685.258 141.107L718.705 195.683C718.898 195.998 719 196.359 719 196.728V285.59C719 285.866 718.943 286.138 718.833 286.391L685.009 363.836C684.912 364.058 684.775 364.261 684.606 364.434L644.435 405.5L561.785 490.852L506.619 550.472C506.277 550.842 506.087 551.327 506.087 551.83V602.875C506.087 603.062 506.06 603.247 506.009 603.426L472.927 718.777C472.874 718.961 472.795 719.137 472.692 719.299L435.574 777.63C435.281 778.091 434.813 778.412 434.277 778.518L286.179 807.962C286.051 807.987 285.92 808 285.789 808H204.494C204.322 808 204.15 807.978 203.984 807.934L93.428 778.745C92.5501 778.513 91.9385 777.719 91.9385 776.811V748.15C91.9385 747.921 91.8994 747.695 91.8227 747.479L54.2933 642.031C54.236 641.871 54.1996 641.703 54.1849 641.533L38.9348 464.797C26.9565 389.029 3 234.617 3 223.117C3 211.736 3 151.315 3 121.618C3 121.021 3.26685 120.475 3.72758 120.095L54.207 78.4688C84.1527 57.2057 145.122 20.9688 149.434 20.9688C153.746 20.9688 238.972 18.5729 276.104 14.6797M541.123 120.695H503.264C502.297 120.695 501.47 121.379 501.298 122.331C498.826 135.987 494.408 161.06 494.408 163.82C494.408 166.642 504.213 188.73 509.39 200.025C509.58 200.439 509.902 200.767 510.309 200.971L561.785 226.711L592.494 240.36C593.424 240.774 593.895 241.819 593.589 242.79L581.863 279.923C581.175 282.104 577.956 281.608 577.956 279.321V260.597C577.956 259.086 576.344 258.121 575.012 258.834L425.233 339.016L574.931 250.071C576.265 249.278 576.228 247.335 574.864 246.594L507.764 210.141C506.526 209.469 504.999 210.253 504.825 211.651L501.77 236.09C501.665 236.931 501.042 237.614 500.215 237.796L411.758 257.258M541.123 120.695L505.625 15.9673C505.361 15.1902 504.65 14.6528 503.83 14.6118L418.771 10.3585C417.243 10.2821 416.194 11.8795 416.863 13.256C420.325 20.3729 425.233 31.0653 425.233 33.5469C425.233 37.1406 452.184 66.7891 451.286 70.3828C450.569 73.2514 445.022 125.851 442.32 151.966C442.308 152.086 442.286 152.199 442.252 152.314L411.758 257.258M541.123 120.695L502.053 4.36325C501.779 3.54876 501.016 3 500.157 3H308.795C308.564 3 308.334 3.04023 308.116 3.11891L276.104 14.6797M411.758 257.258L306.143 272.347C304.105 272.638 303.01 270.029 304.646 268.778L313.36 262.114C313.67 261.877 313.904 261.553 314.033 261.184L327.26 223.263C327.294 223.166 327.32 223.071 327.338 222.97C330.641 204.943 337.193 167.394 337.193 160.227C337.193 153.039 337.193 129.68 337.193 118.898L339.833 79.2953C339.869 78.7661 339.692 78.2445 339.343 77.8453L308.445 42.5312L276.104 14.6797M411.758 257.258L205.133 282.414L159.627 285.983C159.421 286 159.222 285.986 159.021 285.938C143.627 282.288 111.288 272.462 102.719 261.75C91.9385 248.273 81.1581 244.68 81.1581 241.086C81.1581 238.211 88.345 209.94 91.9385 196.164L95.5685 185.273C96.3404 182.957 99.7983 183.78 99.4448 186.195L92.0697 236.596C91.9863 237.165 92.1527 237.744 92.5261 238.182L111.884 260.908C112.33 261.432 113.014 261.69 113.695 261.591L203.606 248.496C204.506 248.365 205.204 247.643 205.305 246.74L215.84 152.797C215.888 152.371 215.802 151.949 215.586 151.578C200.543 125.779 173.384 84.3437 167.402 70.3828C159.342 51.5753 119.151 33.6606 136.688 33.5474C136.79 33.5468 136.908 33.539 137.009 33.5234L258.883 14.7031C258.984 14.6875 259.086 14.6797 259.189 14.6797H276.104" stroke="black" stroke-width="6"/>
</svg>
