<svg width="236" height="318" viewBox="0 0 236 318" fill="none" xmlns="http://www.w3.org/2000/svg">
<path d="M30.3782 81.4251C32.2965 91.9238 47.5655 101.134 58.431 109.233C58.6678 109.41 58.9381 109.531 59.2275 109.59L79.1461 113.672C80.0766 113.863 80.7446 114.682 80.7446 115.632V130.155C80.7446 130.695 80.5261 131.212 80.1387 131.589L64.8698 146.434C64.4965 146.797 63.9963 147 63.4757 147H48.5817C48.046 147 47.5414 146.794 47.1654 146.412C36.0964 135.177 13.3186 112.181 6.24431 105.5C-0.865621 98.7851 5.62129 76.4029 7.71057 66.3751C7.76341 66.1215 7.86171 65.8891 8.00541 65.6736L34.3583 26.1445C34.6347 25.7298 35.056 25.4333 35.5396 25.313L124.827 3.10382C125.102 3.03539 125.389 3.02623 125.668 3.07694L163.745 10L214.235 25.1961C214.867 25.3863 215.364 25.876 215.564 26.5048L232.574 79.9626C232.685 80.314 232.698 80.6895 232.61 81.0476L215.385 150.931C215.293 151.303 215.104 151.633 214.828 151.897C195.303 170.523 164.48 207 157.331 207C150.16 207 141.195 223.034 133.878 233.372C133.817 233.458 133.751 233.538 133.677 233.613L110.672 257.097C110.132 257.649 109.322 257.84 108.592 257.588L83.5633 248.971C82.2186 248.508 81.7732 246.829 82.7115 245.76L116.745 207C133.411 191.333 170.545 158.3 185.745 151.5C200.945 144.7 199.078 116.333 196.245 103L185.969 57.4942C185.828 56.8696 185.396 56.3503 184.808 56.0974L122.503 29.3074C122.043 29.1097 121.526 29.0915 121.053 29.2565L59.2359 50.8436C58.9414 50.9464 58.6749 51.1168 58.458 51.341L30.8947 79.8281C30.4827 80.2539 30.2717 80.8423 30.3782 81.4251Z" fill="#EE5858" stroke="black" stroke-width="6"/>
<path d="M65.429 302.5L73.639 285.596C73.8271 285.209 74.1352 284.893 74.5174 284.695L86.5811 278.439C87.1172 278.162 87.7502 278.141 88.3034 278.383L103.168 284.886C103.341 284.962 103.502 285.061 103.647 285.182L111.498 291.725C112.07 292.201 112.33 292.956 112.173 293.684L108.705 309.723C108.537 310.499 107.924 311.102 107.147 311.263C98.0289 313.154 91.8405 314.765 83.4288 314C74.6288 313.2 61.7623 311.333 65.429 302.5Z" fill="#EE5858" stroke="black" stroke-width="6"/>
</svg>
