<svg width="155" height="207" viewBox="0 0 155 207" fill="none" xmlns="http://www.w3.org/2000/svg">
<path d="M20.9522 53.9435C22.4288 60.5377 31.9627 66.3391 38.8474 71.4548C39.0846 71.631 39.3554 71.7526 39.6448 71.812L51.7649 74.296C52.6953 74.4866 53.3633 75.3054 53.3633 76.2552V84.7405C53.3633 85.2807 53.1448 85.7979 52.7575 86.1745L43.3338 95.3365C42.9604 95.6995 42.4603 95.9026 41.9396 95.9026H32.9215C32.3858 95.9026 31.8751 95.6903 31.4991 95.3087C24.2868 87.9899 9.84114 73.4086 5.32417 69.1426C0.771543 64.8429 4.86449 50.5812 6.24103 44.0506C6.29446 43.7972 6.39335 43.5614 6.53704 43.3459L23.3 18.2016C23.5764 17.787 23.9977 17.4904 24.4813 17.3702L81.6404 3.15252C81.9155 3.08409 82.202 3.07493 82.4809 3.12564L106.883 7.56244L139.082 17.2532C139.714 17.4434 140.211 17.9331 140.411 18.562L151.205 52.4847C151.317 52.8361 151.329 53.2116 151.241 53.5697L140.232 98.2353C140.14 98.6068 139.95 98.9379 139.673 99.2024C127.076 111.256 107.339 134.592 102.747 134.592C98.1343 134.592 92.369 144.884 87.6569 151.552C87.5961 151.638 87.5294 151.717 87.4557 151.792L72.9754 166.574C72.4351 167.126 71.6256 167.317 70.8955 167.066L56.182 162C54.8373 161.537 54.3919 159.858 55.3302 158.789L76.5768 134.592C87.3237 124.49 111.268 103.189 121.069 98.8042C130.87 94.4195 129.667 76.1281 127.84 67.5305L121.294 38.5407C121.153 37.9161 120.721 37.3968 120.133 37.1439L80.5436 20.1213C80.0839 19.9237 79.5667 19.9055 79.0943 20.0705L39.6533 33.8435C39.3587 33.9464 39.0923 34.1168 38.8753 34.341L21.4501 52.3502C21.0381 52.776 20.8228 53.3653 20.9522 53.9435Z" fill="#EE5858" stroke="black" stroke-width="6"/>
<path d="M43.4875 196.172L48.6786 185.484C48.8667 185.097 49.1748 184.78 49.557 184.582L56.8258 180.813C57.3619 180.535 57.9948 180.514 58.5481 180.756L67.7301 184.774C67.9028 184.849 68.064 184.949 68.2088 185.069L72.8634 188.948C73.4354 189.425 73.6952 190.18 73.5379 190.907L71.4906 200.376C71.3229 201.152 70.7112 201.755 69.9343 201.917C64.3006 203.094 60.3775 204.068 55.0941 203.587C49.4197 203.071 41.1232 201.868 43.4875 196.172Z" fill="#EE5858" stroke="black" stroke-width="6"/>
</svg>
